<svg xmlns="http://www.w3.org/2000/svg" xmlns:xlink="http://www.w3.org/1999/xlink" width="1600" zoomAndPan="magnify" viewBox="0 0 1200 675.000002" height="900" preserveAspectRatio="xMidYMid meet" version="1.2"><defs><clipPath id="92c58b7897"><path d="M 0.886719 0 L 1199.113281 0 L 1199.113281 674 L 0.886719 674 Z M 0.886719 0 "/></clipPath></defs><g id="4a32fb7eeb"><g clip-rule="nonzero" clip-path="url(#92c58b7897)"><path style=" stroke:none;fill-rule:nonzero;fill:#ffffff;fill-opacity:1;" d="M 0.886719 0 L 1199.113281 0 L 1199.113281 674 L 0.886719 674 Z M 0.886719 0 "/><path style=" stroke:none;fill-rule:nonzero;fill:#7030a0;fill-opacity:1;" d="M 0.886719 0 L 1199.113281 0 L 1199.113281 674 L 0.886719 674 Z M 0.886719 0 "/></g><g style="fill:#ffffff;fill-opacity:1;"><g transform="translate(380.54555, 375.194948)"><path style="stroke:none" d="M 43.765625 1.359375 C 35.734375 1.359375 28.835938 -0.363281 23.078125 -3.8125 C 17.316406 -7.257812 12.878906 -12.070312 9.765625 -18.25 C 6.660156 -24.425781 5.109375 -31.566406 5.109375 -39.671875 C 5.109375 -47.785156 6.660156 -54.945312 9.765625 -61.15625 C 12.878906 -67.375 17.316406 -72.226562 23.078125 -75.71875 C 28.835938 -79.207031 35.734375 -80.953125 43.765625 -80.953125 C 53.316406 -80.953125 61.140625 -78.582031 67.234375 -73.84375 C 73.335938 -69.101562 77.148438 -62.453125 78.671875 -53.890625 L 62.640625 -53.890625 C 61.648438 -58.210938 59.546875 -61.601562 56.328125 -64.0625 C 53.109375 -66.519531 48.847656 -67.75 43.546875 -67.75 C 36.191406 -67.75 30.429688 -65.25 26.265625 -60.25 C 22.097656 -55.25 20.015625 -48.390625 20.015625 -39.671875 C 20.015625 -30.960938 22.097656 -24.125 26.265625 -19.15625 C 30.429688 -14.1875 36.191406 -11.703125 43.546875 -11.703125 C 48.847656 -11.703125 53.109375 -12.859375 56.328125 -15.171875 C 59.546875 -17.484375 61.648438 -20.6875 62.640625 -24.78125 L 78.671875 -24.78125 C 77.148438 -16.59375 73.335938 -10.1875 67.234375 -5.5625 C 61.140625 -0.945312 53.316406 1.359375 43.765625 1.359375 Z M 43.765625 1.359375 "/></g></g><g style="fill:#ffffff;fill-opacity:1;"><g transform="translate(459.221893, 375.194948)"><path style="stroke:none" d="M 7.390625 0 L 7.390625 -81.859375 L 21.9375 -81.859375 L 21.9375 -47.75 C 23.832031 -50.851562 26.390625 -53.296875 29.609375 -55.078125 C 32.835938 -56.859375 36.535156 -57.75 40.703125 -57.75 C 47.671875 -57.75 53.066406 -55.550781 56.890625 -51.15625 C 60.722656 -46.757812 62.640625 -40.316406 62.640625 -31.828125 L 62.640625 0 L 48.203125 0 L 48.203125 -30.46875 C 48.203125 -35.320312 47.234375 -39.035156 45.296875 -41.609375 C 43.367188 -44.179688 40.320312 -45.46875 36.15625 -45.46875 C 32.0625 -45.46875 28.664062 -44.023438 25.96875 -41.140625 C 23.28125 -38.265625 21.9375 -34.253906 21.9375 -29.109375 L 21.9375 0 Z M 7.390625 0 "/></g></g><g style="fill:#ffffff;fill-opacity:1;"><g transform="translate(523.231705, 375.194948)"><path style="stroke:none" d="M 28.53125 1.359375 C 21.488281 1.359375 16.050781 -0.835938 12.21875 -5.234375 C 8.394531 -9.628906 6.484375 -16.070312 6.484375 -24.5625 L 6.484375 -56.390625 L 20.921875 -56.390625 L 20.921875 -25.921875 C 20.921875 -21.066406 21.90625 -17.347656 23.875 -14.765625 C 25.84375 -12.191406 28.953125 -10.90625 33.203125 -10.90625 C 37.210938 -10.90625 40.523438 -12.34375 43.140625 -15.21875 C 45.753906 -18.101562 47.0625 -22.125 47.0625 -27.28125 L 47.0625 -56.390625 L 61.625 -56.390625 L 61.625 0 L 48.765625 0 L 47.640625 -9.546875 C 45.890625 -6.210938 43.363281 -3.5625 40.0625 -1.59375 C 36.769531 0.375 32.925781 1.359375 28.53125 1.359375 Z M 28.53125 1.359375 "/></g></g><g style="fill:#ffffff;fill-opacity:1;"><g transform="translate(587.241516, 375.194948)"><path style="stroke:none" d="M 7.390625 0 L 7.390625 -56.390625 L 20.34375 -56.390625 L 21.71875 -45.8125 C 23.757812 -49.445312 26.539062 -52.34375 30.0625 -54.5 C 33.59375 -56.664062 37.742188 -57.75 42.515625 -57.75 L 42.515625 -42.40625 L 38.421875 -42.40625 C 35.242188 -42.40625 32.398438 -41.910156 29.890625 -40.921875 C 27.390625 -39.941406 25.4375 -38.238281 24.03125 -35.8125 C 22.632812 -33.382812 21.9375 -30.007812 21.9375 -25.6875 L 21.9375 0 Z M 7.390625 0 "/></g></g><g style="fill:#ffffff;fill-opacity:1;"><g transform="translate(627.148173, 375.194948)"><path style="stroke:none" d="M 7.734375 0 L 7.734375 -79.578125 L 37.171875 -79.578125 C 43.535156 -79.578125 48.800781 -78.515625 52.96875 -76.390625 C 57.144531 -74.273438 60.253906 -71.359375 62.296875 -67.640625 C 64.347656 -63.929688 65.375 -59.765625 65.375 -55.140625 C 65.375 -50.742188 64.382812 -46.707031 62.40625 -43.03125 C 60.4375 -39.351562 57.367188 -36.394531 53.203125 -34.15625 C 49.035156 -31.925781 43.691406 -30.8125 37.171875 -30.8125 L 22.28125 -30.8125 L 22.28125 0 Z M 22.28125 -42.640625 L 36.265625 -42.640625 C 41.347656 -42.640625 45.003906 -43.753906 47.234375 -45.984375 C 49.472656 -48.222656 50.59375 -51.273438 50.59375 -55.140625 C 50.59375 -59.078125 49.472656 -62.160156 47.234375 -64.390625 C 45.003906 -66.628906 41.347656 -67.75 36.265625 -67.75 L 22.28125 -67.75 Z M 22.28125 -42.640625 "/></g></g><g style="fill:#ffc000;fill-opacity:1;"><g transform="translate(691.067592, 375.194948)"><path style="stroke:none" d="M 26.828125 1.359375 C 21.972656 1.359375 17.992188 0.582031 14.890625 -0.96875 C 11.785156 -2.519531 9.472656 -4.582031 7.953125 -7.15625 C 6.441406 -9.738281 5.6875 -12.582031 5.6875 -15.6875 C 5.6875 -20.914062 7.734375 -25.160156 11.828125 -28.421875 C 15.921875 -31.679688 22.054688 -33.3125 30.234375 -33.3125 L 44.5625 -33.3125 L 44.5625 -34.671875 C 44.5625 -38.535156 43.460938 -41.378906 41.265625 -43.203125 C 39.066406 -45.023438 36.335938 -45.9375 33.078125 -45.9375 C 30.128906 -45.9375 27.554688 -45.234375 25.359375 -43.828125 C 23.160156 -42.421875 21.796875 -40.351562 21.265625 -37.625 L 7.046875 -37.625 C 7.421875 -41.71875 8.800781 -45.28125 11.1875 -48.3125 C 13.582031 -51.34375 16.671875 -53.671875 20.453125 -55.296875 C 24.242188 -56.929688 28.492188 -57.75 33.203125 -57.75 C 41.234375 -57.75 47.5625 -55.738281 52.1875 -51.71875 C 56.8125 -47.707031 59.125 -42.023438 59.125 -34.671875 L 59.125 0 L 46.71875 0 L 45.359375 -9.09375 C 43.691406 -6.0625 41.359375 -3.5625 38.359375 -1.59375 C 35.367188 0.375 31.523438 1.359375 26.828125 1.359375 Z M 30.125 -10 C 34.289062 -10 37.53125 -11.363281 39.84375 -14.09375 C 42.15625 -16.820312 43.613281 -20.195312 44.21875 -24.21875 L 31.828125 -24.21875 C 27.960938 -24.21875 25.195312 -23.515625 23.53125 -22.109375 C 21.863281 -20.710938 21.03125 -18.988281 21.03125 -16.9375 C 21.03125 -14.738281 21.863281 -13.03125 23.53125 -11.8125 C 25.195312 -10.601562 27.394531 -10 30.125 -10 Z M 30.125 -10 "/></g></g><g style="fill:#ffffff;fill-opacity:1;"><g transform="translate(751.578724, 375.194948)"><path style="stroke:none" d="M 14.4375 25.015625 L 27.515625 -3.75 L 24.109375 -3.75 L 2.15625 -56.390625 L 17.96875 -56.390625 L 33.765625 -16.71875 L 50.25 -56.390625 L 65.71875 -56.390625 L 29.90625 25.015625 Z M 14.4375 25.015625 "/></g></g></g></svg>